<mxfile host="app.diagrams.net" agent="Mozilla/5.0 (Windows NT 10.0; Win64; x64) AppleWebKit/537.36 (KHTML, like Gecko) Chrome/131.0.0.0 Safari/537.36" version="25.0.1">
  <diagram id="6a731a19-8d31-9384-78a2-239565b7b9f0" name="Page-1">
    <mxGraphModel dx="6012" dy="3999" grid="1" gridSize="10" guides="1" tooltips="1" connect="1" arrows="1" fold="1" page="1" pageScale="1" pageWidth="827" pageHeight="1169" background="none" math="0" shadow="0">
      <root>
        <mxCell id="0" />
        <mxCell id="1" parent="0" />
        <mxCell id="2093" value="" style="rounded=1;whiteSpace=wrap;html=1;strokeColor=none;fillColor=#BAC8D3;fontSize=24;fontColor=#23445D;align=center;opacity=60;" parent="1" vertex="1">
          <mxGeometry x="668" y="120" width="210" height="590" as="geometry" />
        </mxCell>
        <mxCell id="k6ytuYubuGOaf6LZr-h1-2257" value="" style="shape=mxgraph.cisco.switches.workgroup_switch;html=1;pointerEvents=1;dashed=0;fillColor=#0099FF;strokeColor=#FFFFFF;strokeWidth=2;verticalLabelPosition=bottom;verticalAlign=top;align=center;outlineConnect=0;shadow=0;gradientColor=none;horizontal=1;" vertex="1" parent="1">
          <mxGeometry x="728" y="190" width="101" height="50" as="geometry" />
        </mxCell>
        <mxCell id="k6ytuYubuGOaf6LZr-h1-2258" value="172.16.150.61" style="text;strokeColor=none;fillColor=none;html=1;fontSize=24;fontStyle=1;verticalAlign=top;align=center;horizontal=1;" vertex="1" parent="1">
          <mxGeometry x="723" y="240" width="100" height="40" as="geometry" />
        </mxCell>
        <mxCell id="k6ytuYubuGOaf6LZr-h1-2259" value="" style="shape=mxgraph.cisco.switches.workgroup_switch;html=1;pointerEvents=1;dashed=0;fillColor=#0099FF;strokeColor=#FFFFFF;strokeWidth=2;verticalLabelPosition=bottom;verticalAlign=top;align=center;outlineConnect=0;shadow=0;gradientColor=none;horizontal=1;" vertex="1" parent="1">
          <mxGeometry x="725" y="290" width="101" height="50" as="geometry" />
        </mxCell>
        <mxCell id="k6ytuYubuGOaf6LZr-h1-2260" value="172.16.150.10&lt;div&gt;&lt;br&gt;&lt;/div&gt;" style="text;strokeColor=none;fillColor=none;html=1;fontSize=24;fontStyle=1;verticalAlign=top;align=center;horizontal=1;" vertex="1" parent="1">
          <mxGeometry x="720" y="340" width="100" height="40" as="geometry" />
        </mxCell>
        <mxCell id="k6ytuYubuGOaf6LZr-h1-2261" value="" style="shape=mxgraph.cisco.switches.workgroup_switch;html=1;pointerEvents=1;dashed=0;fillColor=#0099FF;strokeColor=#FFFFFF;strokeWidth=2;verticalLabelPosition=bottom;verticalAlign=top;align=center;outlineConnect=0;shadow=0;gradientColor=none;horizontal=1;" vertex="1" parent="1">
          <mxGeometry x="725" y="390" width="101" height="50" as="geometry" />
        </mxCell>
        <mxCell id="k6ytuYubuGOaf6LZr-h1-2262" value="172.16.150.26" style="text;strokeColor=none;fillColor=none;html=1;fontSize=24;fontStyle=1;verticalAlign=top;align=center;horizontal=1;" vertex="1" parent="1">
          <mxGeometry x="720" y="440" width="100" height="40" as="geometry" />
        </mxCell>
        <mxCell id="k6ytuYubuGOaf6LZr-h1-2264" value="172.16.150.41" style="text;strokeColor=none;fillColor=none;html=1;fontSize=24;fontStyle=1;verticalAlign=top;align=center;horizontal=1;" vertex="1" parent="1">
          <mxGeometry x="722.5" y="540" width="100" height="40" as="geometry" />
        </mxCell>
        <mxCell id="k6ytuYubuGOaf6LZr-h1-2268" value="172.16.150.60" style="text;strokeColor=none;fillColor=none;html=1;fontSize=24;fontStyle=1;verticalAlign=top;align=center;horizontal=1;" vertex="1" parent="1">
          <mxGeometry x="720" y="645" width="100" height="40" as="geometry" />
        </mxCell>
        <mxCell id="k6ytuYubuGOaf6LZr-h1-2269" value="" style="shape=mxgraph.cisco.switches.multiswitch_device;sketch=0;html=1;pointerEvents=1;dashed=0;fillColor=#036897;strokeColor=#ffffff;strokeWidth=2;verticalLabelPosition=bottom;verticalAlign=top;align=center;outlineConnect=0;" vertex="1" parent="1">
          <mxGeometry x="719.5" y="480" width="101" height="64" as="geometry" />
        </mxCell>
        <mxCell id="k6ytuYubuGOaf6LZr-h1-2270" value="" style="shape=mxgraph.cisco.switches.multiswitch_device;sketch=0;html=1;pointerEvents=1;dashed=0;fillColor=#036897;strokeColor=#ffffff;strokeWidth=2;verticalLabelPosition=bottom;verticalAlign=top;align=center;outlineConnect=0;" vertex="1" parent="1">
          <mxGeometry x="720" y="582" width="101" height="64" as="geometry" />
        </mxCell>
        <mxCell id="k6ytuYubuGOaf6LZr-h1-2271" value="A203" style="text;strokeColor=none;fillColor=none;html=1;fontSize=24;fontStyle=1;verticalAlign=middle;align=center;" vertex="1" parent="1">
          <mxGeometry x="722.5" y="130" width="100" height="40" as="geometry" />
        </mxCell>
        <mxCell id="k6ytuYubuGOaf6LZr-h1-2272" value="" style="rounded=1;whiteSpace=wrap;html=1;strokeColor=none;fillColor=#BAC8D3;fontSize=24;fontColor=#23445D;align=center;opacity=60;" vertex="1" parent="1">
          <mxGeometry x="670" y="-870" width="210" height="290" as="geometry" />
        </mxCell>
        <mxCell id="k6ytuYubuGOaf6LZr-h1-2273" value="" style="shape=mxgraph.cisco.switches.workgroup_switch;html=1;pointerEvents=1;dashed=0;fillColor=#0099FF;strokeColor=#FFFFFF;strokeWidth=2;verticalLabelPosition=bottom;verticalAlign=top;align=center;outlineConnect=0;shadow=0;gradientColor=none;horizontal=1;" vertex="1" parent="1">
          <mxGeometry x="731" y="-790" width="101" height="50" as="geometry" />
        </mxCell>
        <mxCell id="k6ytuYubuGOaf6LZr-h1-2274" value="172.16.150.25" style="text;strokeColor=none;fillColor=none;html=1;fontSize=24;fontStyle=1;verticalAlign=top;align=center;horizontal=1;" vertex="1" parent="1">
          <mxGeometry x="726" y="-740" width="100" height="40" as="geometry" />
        </mxCell>
        <mxCell id="k6ytuYubuGOaf6LZr-h1-2276" value="172.16.150.39" style="text;strokeColor=none;fillColor=none;html=1;fontSize=24;fontStyle=1;verticalAlign=top;align=center;horizontal=1;" vertex="1" parent="1">
          <mxGeometry x="723" y="-640" width="100" height="40" as="geometry" />
        </mxCell>
        <mxCell id="k6ytuYubuGOaf6LZr-h1-2277" value="E122" style="text;strokeColor=none;fillColor=none;html=1;fontSize=24;fontStyle=1;verticalAlign=middle;align=center;" vertex="1" parent="1">
          <mxGeometry x="726" y="-850" width="100" height="40" as="geometry" />
        </mxCell>
        <mxCell id="k6ytuYubuGOaf6LZr-h1-2278" value="" style="rounded=1;whiteSpace=wrap;html=1;strokeColor=none;fillColor=#BAC8D3;fontSize=24;fontColor=#23445D;align=center;opacity=60;" vertex="1" parent="1">
          <mxGeometry x="285" y="-980" width="210" height="200" as="geometry" />
        </mxCell>
        <mxCell id="k6ytuYubuGOaf6LZr-h1-2279" value="" style="shape=mxgraph.cisco.switches.workgroup_switch;html=1;pointerEvents=1;dashed=0;fillColor=#0099FF;strokeColor=#FFFFFF;strokeWidth=2;verticalLabelPosition=bottom;verticalAlign=top;align=center;outlineConnect=0;shadow=0;gradientColor=none;horizontal=1;" vertex="1" parent="1">
          <mxGeometry x="339.5" y="-890" width="101" height="50" as="geometry" />
        </mxCell>
        <mxCell id="k6ytuYubuGOaf6LZr-h1-2280" value="?" style="text;strokeColor=none;fillColor=none;html=1;fontSize=24;fontStyle=1;verticalAlign=top;align=center;horizontal=1;" vertex="1" parent="1">
          <mxGeometry x="334.5" y="-840" width="100" height="40" as="geometry" />
        </mxCell>
        <mxCell id="k6ytuYubuGOaf6LZr-h1-2283" value="E108" style="text;strokeColor=none;fillColor=none;html=1;fontSize=24;fontStyle=1;verticalAlign=middle;align=center;" vertex="1" parent="1">
          <mxGeometry x="340.5" y="-950" width="100" height="40" as="geometry" />
        </mxCell>
        <mxCell id="k6ytuYubuGOaf6LZr-h1-2284" value="" style="rounded=1;whiteSpace=wrap;html=1;strokeColor=none;fillColor=#BAC8D3;fontSize=24;fontColor=#23445D;align=center;opacity=60;" vertex="1" parent="1">
          <mxGeometry x="285" y="-750" width="210" height="200" as="geometry" />
        </mxCell>
        <mxCell id="k6ytuYubuGOaf6LZr-h1-2285" value="" style="shape=mxgraph.cisco.switches.workgroup_switch;html=1;pointerEvents=1;dashed=0;fillColor=#0099FF;strokeColor=#FFFFFF;strokeWidth=2;verticalLabelPosition=bottom;verticalAlign=top;align=center;outlineConnect=0;shadow=0;gradientColor=none;horizontal=1;" vertex="1" parent="1">
          <mxGeometry x="342.5" y="-660" width="101" height="50" as="geometry" />
        </mxCell>
        <mxCell id="k6ytuYubuGOaf6LZr-h1-2286" value="?" style="text;strokeColor=none;fillColor=none;html=1;fontSize=24;fontStyle=1;verticalAlign=top;align=center;horizontal=1;" vertex="1" parent="1">
          <mxGeometry x="337.5" y="-610" width="100" height="40" as="geometry" />
        </mxCell>
        <mxCell id="k6ytuYubuGOaf6LZr-h1-2289" value="E105" style="text;strokeColor=none;fillColor=none;html=1;fontSize=24;fontStyle=1;verticalAlign=middle;align=center;" vertex="1" parent="1">
          <mxGeometry x="336.5" y="-720" width="100" height="40" as="geometry" />
        </mxCell>
        <mxCell id="k6ytuYubuGOaf6LZr-h1-2290" value="" style="rounded=1;whiteSpace=wrap;html=1;strokeColor=none;fillColor=#BAC8D3;fontSize=24;fontColor=#23445D;align=center;opacity=60;" vertex="1" parent="1">
          <mxGeometry x="670" y="-230" width="210" height="200" as="geometry" />
        </mxCell>
        <mxCell id="k6ytuYubuGOaf6LZr-h1-2292" value="172.16.150.34" style="text;strokeColor=none;fillColor=none;html=1;fontSize=24;fontStyle=1;verticalAlign=top;align=center;horizontal=1;" vertex="1" parent="1">
          <mxGeometry x="726" y="-100" width="100" height="40" as="geometry" />
        </mxCell>
        <mxCell id="k6ytuYubuGOaf6LZr-h1-2293" value="A302" style="text;strokeColor=none;fillColor=none;html=1;fontSize=24;fontStyle=1;verticalAlign=middle;align=center;" vertex="1" parent="1">
          <mxGeometry x="723" y="-210" width="100" height="40" as="geometry" />
        </mxCell>
        <mxCell id="k6ytuYubuGOaf6LZr-h1-2294" value="" style="rounded=1;whiteSpace=wrap;html=1;strokeColor=none;fillColor=#BAC8D3;fontSize=24;fontColor=#23445D;align=center;opacity=60;" vertex="1" parent="1">
          <mxGeometry x="28" y="-320" width="210" height="290" as="geometry" />
        </mxCell>
        <mxCell id="k6ytuYubuGOaf6LZr-h1-2295" value="" style="shape=mxgraph.cisco.switches.workgroup_switch;html=1;pointerEvents=1;dashed=0;fillColor=#0099FF;strokeColor=#FFFFFF;strokeWidth=2;verticalLabelPosition=bottom;verticalAlign=top;align=center;outlineConnect=0;shadow=0;gradientColor=none;horizontal=1;" vertex="1" parent="1">
          <mxGeometry x="89" y="-240" width="101" height="50" as="geometry" />
        </mxCell>
        <mxCell id="k6ytuYubuGOaf6LZr-h1-2296" value="172.16.150.31" style="text;strokeColor=none;fillColor=none;html=1;fontSize=24;fontStyle=1;verticalAlign=top;align=center;horizontal=1;" vertex="1" parent="1">
          <mxGeometry x="84" y="-190" width="100" height="40" as="geometry" />
        </mxCell>
        <mxCell id="k6ytuYubuGOaf6LZr-h1-2298" value="172.16.150.37" style="text;strokeColor=none;fillColor=none;html=1;fontSize=24;fontStyle=1;verticalAlign=top;align=center;horizontal=1;" vertex="1" parent="1">
          <mxGeometry x="81" y="-90" width="100" height="40" as="geometry" />
        </mxCell>
        <mxCell id="k6ytuYubuGOaf6LZr-h1-2299" value="E117" style="text;strokeColor=none;fillColor=none;html=1;fontSize=24;fontStyle=1;verticalAlign=middle;align=center;" vertex="1" parent="1">
          <mxGeometry x="84" y="-300" width="100" height="40" as="geometry" />
        </mxCell>
        <mxCell id="k6ytuYubuGOaf6LZr-h1-2300" value="" style="rounded=1;whiteSpace=wrap;html=1;strokeColor=none;fillColor=#BAC8D3;fontSize=24;fontColor=#23445D;align=center;opacity=60;" vertex="1" parent="1">
          <mxGeometry x="-310" y="-320" width="210" height="290" as="geometry" />
        </mxCell>
        <mxCell id="k6ytuYubuGOaf6LZr-h1-2301" value="" style="shape=mxgraph.cisco.switches.workgroup_switch;html=1;pointerEvents=1;dashed=0;fillColor=#0099FF;strokeColor=#FFFFFF;strokeWidth=2;verticalLabelPosition=bottom;verticalAlign=top;align=center;outlineConnect=0;shadow=0;gradientColor=none;horizontal=1;" vertex="1" parent="1">
          <mxGeometry x="-249" y="-240" width="101" height="50" as="geometry" />
        </mxCell>
        <mxCell id="k6ytuYubuGOaf6LZr-h1-2302" value="172.16.150.33" style="text;strokeColor=none;fillColor=none;html=1;fontSize=24;fontStyle=1;verticalAlign=top;align=center;horizontal=1;" vertex="1" parent="1">
          <mxGeometry x="-254" y="-190" width="100" height="40" as="geometry" />
        </mxCell>
        <mxCell id="k6ytuYubuGOaf6LZr-h1-2304" value="172.16.150.38" style="text;strokeColor=none;fillColor=none;html=1;fontSize=24;fontStyle=1;verticalAlign=top;align=center;horizontal=1;" vertex="1" parent="1">
          <mxGeometry x="-257" y="-90" width="100" height="40" as="geometry" />
        </mxCell>
        <mxCell id="k6ytuYubuGOaf6LZr-h1-2305" value="D125" style="text;strokeColor=none;fillColor=none;html=1;fontSize=24;fontStyle=1;verticalAlign=middle;align=center;" vertex="1" parent="1">
          <mxGeometry x="-254" y="-300" width="100" height="40" as="geometry" />
        </mxCell>
        <mxCell id="k6ytuYubuGOaf6LZr-h1-2306" value="" style="shape=mxgraph.cisco.switches.multiswitch_device;sketch=0;html=1;pointerEvents=1;dashed=0;fillColor=#036897;strokeColor=#ffffff;strokeWidth=2;verticalLabelPosition=bottom;verticalAlign=top;align=center;outlineConnect=0;" vertex="1" parent="1">
          <mxGeometry x="80" y="-150" width="101" height="64" as="geometry" />
        </mxCell>
        <mxCell id="k6ytuYubuGOaf6LZr-h1-2307" value="" style="shape=mxgraph.cisco.switches.multiswitch_device;sketch=0;html=1;pointerEvents=1;dashed=0;fillColor=#036897;strokeColor=#ffffff;strokeWidth=2;verticalLabelPosition=bottom;verticalAlign=top;align=center;outlineConnect=0;" vertex="1" parent="1">
          <mxGeometry x="-258.5" y="-150" width="101" height="64" as="geometry" />
        </mxCell>
        <mxCell id="k6ytuYubuGOaf6LZr-h1-2308" value="" style="shape=mxgraph.cisco.switches.multiswitch_device;sketch=0;html=1;pointerEvents=1;dashed=0;fillColor=#036897;strokeColor=#ffffff;strokeWidth=2;verticalLabelPosition=bottom;verticalAlign=top;align=center;outlineConnect=0;" vertex="1" parent="1">
          <mxGeometry x="730" y="-164" width="101" height="64" as="geometry" />
        </mxCell>
        <mxCell id="k6ytuYubuGOaf6LZr-h1-2309" value="" style="shape=mxgraph.cisco.switches.multiswitch_device;sketch=0;html=1;pointerEvents=1;dashed=0;fillColor=#036897;strokeColor=#ffffff;strokeWidth=2;verticalLabelPosition=bottom;verticalAlign=top;align=center;outlineConnect=0;" vertex="1" parent="1">
          <mxGeometry x="724.5" y="-700" width="101" height="64" as="geometry" />
        </mxCell>
        <mxCell id="k6ytuYubuGOaf6LZr-h1-2310" value="" style="rounded=1;whiteSpace=wrap;html=1;strokeColor=none;fillColor=#BAC8D3;fontSize=24;fontColor=#23445D;align=center;opacity=60;" vertex="1" parent="1">
          <mxGeometry x="28" y="480" width="210" height="290" as="geometry" />
        </mxCell>
        <mxCell id="k6ytuYubuGOaf6LZr-h1-2311" value="" style="shape=mxgraph.cisco.switches.workgroup_switch;html=1;pointerEvents=1;dashed=0;fillColor=#0099FF;strokeColor=#FFFFFF;strokeWidth=2;verticalLabelPosition=bottom;verticalAlign=top;align=center;outlineConnect=0;shadow=0;gradientColor=none;horizontal=1;" vertex="1" parent="1">
          <mxGeometry x="89" y="560" width="101" height="50" as="geometry" />
        </mxCell>
        <mxCell id="k6ytuYubuGOaf6LZr-h1-2312" value="172.16.150.30" style="text;strokeColor=none;fillColor=none;html=1;fontSize=24;fontStyle=1;verticalAlign=top;align=center;horizontal=1;" vertex="1" parent="1">
          <mxGeometry x="84" y="610" width="100" height="40" as="geometry" />
        </mxCell>
        <mxCell id="k6ytuYubuGOaf6LZr-h1-2313" value="172.16.150.36" style="text;strokeColor=none;fillColor=none;html=1;fontSize=24;fontStyle=1;verticalAlign=top;align=center;horizontal=1;" vertex="1" parent="1">
          <mxGeometry x="81" y="710" width="100" height="40" as="geometry" />
        </mxCell>
        <mxCell id="k6ytuYubuGOaf6LZr-h1-2314" value="C204" style="text;strokeColor=none;fillColor=none;html=1;fontSize=24;fontStyle=1;verticalAlign=middle;align=center;" vertex="1" parent="1">
          <mxGeometry x="84" y="500" width="100" height="40" as="geometry" />
        </mxCell>
        <mxCell id="k6ytuYubuGOaf6LZr-h1-2315" value="" style="shape=mxgraph.cisco.switches.multiswitch_device;sketch=0;html=1;pointerEvents=1;dashed=0;fillColor=#036897;strokeColor=#ffffff;strokeWidth=2;verticalLabelPosition=bottom;verticalAlign=top;align=center;outlineConnect=0;" vertex="1" parent="1">
          <mxGeometry x="80" y="650" width="101" height="64" as="geometry" />
        </mxCell>
        <mxCell id="k6ytuYubuGOaf6LZr-h1-2316" value="" style="rounded=1;whiteSpace=wrap;html=1;strokeColor=none;fillColor=#BAC8D3;fontSize=24;fontColor=#23445D;align=center;opacity=60;" vertex="1" parent="1">
          <mxGeometry x="-308" y="485" width="210" height="200" as="geometry" />
        </mxCell>
        <mxCell id="k6ytuYubuGOaf6LZr-h1-2317" value="172.16.150.51" style="text;strokeColor=none;fillColor=none;html=1;fontSize=24;fontStyle=1;verticalAlign=top;align=center;horizontal=1;" vertex="1" parent="1">
          <mxGeometry x="-252" y="615" width="100" height="40" as="geometry" />
        </mxCell>
        <mxCell id="k6ytuYubuGOaf6LZr-h1-2318" value="C122" style="text;strokeColor=none;fillColor=none;html=1;fontSize=24;fontStyle=1;verticalAlign=middle;align=center;" vertex="1" parent="1">
          <mxGeometry x="-255" y="505" width="100" height="40" as="geometry" />
        </mxCell>
        <mxCell id="k6ytuYubuGOaf6LZr-h1-2319" value="" style="shape=mxgraph.cisco.switches.multiswitch_device;sketch=0;html=1;pointerEvents=1;dashed=0;fillColor=#036897;strokeColor=#ffffff;strokeWidth=2;verticalLabelPosition=bottom;verticalAlign=top;align=center;outlineConnect=0;" vertex="1" parent="1">
          <mxGeometry x="-248" y="551" width="101" height="64" as="geometry" />
        </mxCell>
        <mxCell id="k6ytuYubuGOaf6LZr-h1-2322" value="" style="rounded=1;whiteSpace=wrap;html=1;strokeColor=none;fillColor=#BAC8D3;fontSize=24;fontColor=#23445D;align=center;opacity=60;" vertex="1" parent="1">
          <mxGeometry x="29" y="1010" width="210" height="290" as="geometry" />
        </mxCell>
        <mxCell id="k6ytuYubuGOaf6LZr-h1-2323" value="" style="shape=mxgraph.cisco.switches.workgroup_switch;html=1;pointerEvents=1;dashed=0;fillColor=#0099FF;strokeColor=#FFFFFF;strokeWidth=2;verticalLabelPosition=bottom;verticalAlign=top;align=center;outlineConnect=0;shadow=0;gradientColor=none;horizontal=1;" vertex="1" parent="1">
          <mxGeometry x="90" y="1090" width="101" height="50" as="geometry" />
        </mxCell>
        <mxCell id="k6ytuYubuGOaf6LZr-h1-2324" value="172.16.150.28" style="text;strokeColor=none;fillColor=none;html=1;fontSize=24;fontStyle=1;verticalAlign=top;align=center;horizontal=1;" vertex="1" parent="1">
          <mxGeometry x="85" y="1140" width="100" height="40" as="geometry" />
        </mxCell>
        <mxCell id="k6ytuYubuGOaf6LZr-h1-2325" value="172.16.150.50" style="text;strokeColor=none;fillColor=none;html=1;fontSize=24;fontStyle=1;verticalAlign=top;align=center;horizontal=1;" vertex="1" parent="1">
          <mxGeometry x="82" y="1240" width="100" height="40" as="geometry" />
        </mxCell>
        <mxCell id="k6ytuYubuGOaf6LZr-h1-2326" value="C116" style="text;strokeColor=none;fillColor=none;html=1;fontSize=24;fontStyle=1;verticalAlign=middle;align=center;" vertex="1" parent="1">
          <mxGeometry x="85" y="1030" width="100" height="40" as="geometry" />
        </mxCell>
        <mxCell id="k6ytuYubuGOaf6LZr-h1-2327" value="" style="shape=mxgraph.cisco.switches.multiswitch_device;sketch=0;html=1;pointerEvents=1;dashed=0;fillColor=#036897;strokeColor=#ffffff;strokeWidth=2;verticalLabelPosition=bottom;verticalAlign=top;align=center;outlineConnect=0;" vertex="1" parent="1">
          <mxGeometry x="81" y="1180" width="101" height="64" as="geometry" />
        </mxCell>
        <mxCell id="k6ytuYubuGOaf6LZr-h1-2328" value="" style="rounded=1;whiteSpace=wrap;html=1;strokeColor=none;fillColor=#BAC8D3;fontSize=24;fontColor=#23445D;align=center;opacity=60;" vertex="1" parent="1">
          <mxGeometry x="30" y="1490" width="210" height="200" as="geometry" />
        </mxCell>
        <mxCell id="k6ytuYubuGOaf6LZr-h1-2329" value="" style="shape=mxgraph.cisco.switches.workgroup_switch;html=1;pointerEvents=1;dashed=0;fillColor=#0099FF;strokeColor=#FFFFFF;strokeWidth=2;verticalLabelPosition=bottom;verticalAlign=top;align=center;outlineConnect=0;shadow=0;gradientColor=none;horizontal=1;" vertex="1" parent="1">
          <mxGeometry x="87.5" y="1580" width="101" height="50" as="geometry" />
        </mxCell>
        <mxCell id="k6ytuYubuGOaf6LZr-h1-2330" value="172.16.150.52" style="text;strokeColor=none;fillColor=none;html=1;fontSize=24;fontStyle=1;verticalAlign=top;align=center;horizontal=1;" vertex="1" parent="1">
          <mxGeometry x="82.5" y="1630" width="100" height="40" as="geometry" />
        </mxCell>
        <mxCell id="k6ytuYubuGOaf6LZr-h1-2331" value="C104" style="text;strokeColor=none;fillColor=none;html=1;fontSize=24;fontStyle=1;verticalAlign=middle;align=center;" vertex="1" parent="1">
          <mxGeometry x="81.5" y="1520" width="100" height="40" as="geometry" />
        </mxCell>
        <mxCell id="k6ytuYubuGOaf6LZr-h1-2332" value="" style="rounded=1;whiteSpace=wrap;html=1;strokeColor=none;fillColor=#BAC8D3;fontSize=24;fontColor=#23445D;align=center;opacity=60;" vertex="1" parent="1">
          <mxGeometry x="1310" y="270" width="210" height="290" as="geometry" />
        </mxCell>
        <mxCell id="k6ytuYubuGOaf6LZr-h1-2333" value="" style="shape=mxgraph.cisco.switches.workgroup_switch;html=1;pointerEvents=1;dashed=0;fillColor=#0099FF;strokeColor=#FFFFFF;strokeWidth=2;verticalLabelPosition=bottom;verticalAlign=top;align=center;outlineConnect=0;shadow=0;gradientColor=none;horizontal=1;" vertex="1" parent="1">
          <mxGeometry x="1371" y="350" width="101" height="50" as="geometry" />
        </mxCell>
        <mxCell id="k6ytuYubuGOaf6LZr-h1-2334" value="172.16.150.29" style="text;strokeColor=none;fillColor=none;html=1;fontSize=24;fontStyle=1;verticalAlign=top;align=center;horizontal=1;" vertex="1" parent="1">
          <mxGeometry x="1366" y="400" width="100" height="40" as="geometry" />
        </mxCell>
        <mxCell id="k6ytuYubuGOaf6LZr-h1-2335" value="172.16.150.40" style="text;strokeColor=none;fillColor=none;html=1;fontSize=24;fontStyle=1;verticalAlign=top;align=center;horizontal=1;" vertex="1" parent="1">
          <mxGeometry x="1366" y="504" width="100" height="40" as="geometry" />
        </mxCell>
        <mxCell id="k6ytuYubuGOaf6LZr-h1-2336" value="B103" style="text;strokeColor=none;fillColor=none;html=1;fontSize=24;fontStyle=1;verticalAlign=middle;align=center;" vertex="1" parent="1">
          <mxGeometry x="1366" y="290" width="100" height="40" as="geometry" />
        </mxCell>
        <mxCell id="k6ytuYubuGOaf6LZr-h1-2337" value="" style="shape=mxgraph.cisco.switches.multiswitch_device;sketch=0;html=1;pointerEvents=1;dashed=0;fillColor=#036897;strokeColor=#ffffff;strokeWidth=2;verticalLabelPosition=bottom;verticalAlign=top;align=center;outlineConnect=0;" vertex="1" parent="1">
          <mxGeometry x="1362" y="440" width="101" height="64" as="geometry" />
        </mxCell>
        <mxCell id="k6ytuYubuGOaf6LZr-h1-2338" value="" style="rounded=1;whiteSpace=wrap;html=1;strokeColor=none;fillColor=#BAC8D3;fontSize=24;fontColor=#23445D;align=center;opacity=60;" vertex="1" parent="1">
          <mxGeometry x="2110" width="210" height="280" as="geometry" />
        </mxCell>
        <mxCell id="k6ytuYubuGOaf6LZr-h1-2340" value="172.16.150.50" style="text;strokeColor=none;fillColor=none;html=1;fontSize=24;fontStyle=1;verticalAlign=top;align=center;horizontal=1;" vertex="1" parent="1">
          <mxGeometry x="2166" y="130" width="100" height="40" as="geometry" />
        </mxCell>
        <mxCell id="k6ytuYubuGOaf6LZr-h1-2341" value="172.16.150.58" style="text;strokeColor=none;fillColor=none;html=1;fontSize=24;fontStyle=1;verticalAlign=top;align=center;horizontal=1;" vertex="1" parent="1">
          <mxGeometry x="2162.5" y="234" width="100" height="40" as="geometry" />
        </mxCell>
        <mxCell id="k6ytuYubuGOaf6LZr-h1-2342" value="B101" style="text;strokeColor=none;fillColor=none;html=1;fontSize=24;fontStyle=1;verticalAlign=middle;align=center;" vertex="1" parent="1">
          <mxGeometry x="2166" y="20" width="100" height="40" as="geometry" />
        </mxCell>
        <mxCell id="k6ytuYubuGOaf6LZr-h1-2343" value="" style="shape=mxgraph.cisco.switches.multiswitch_device;sketch=0;html=1;pointerEvents=1;dashed=0;fillColor=#036897;strokeColor=#ffffff;strokeWidth=2;verticalLabelPosition=bottom;verticalAlign=top;align=center;outlineConnect=0;" vertex="1" parent="1">
          <mxGeometry x="2162" y="170" width="101" height="64" as="geometry" />
        </mxCell>
        <mxCell id="k6ytuYubuGOaf6LZr-h1-2344" value="" style="shape=mxgraph.cisco.switches.multiswitch_device;sketch=0;html=1;pointerEvents=1;dashed=0;fillColor=#036897;strokeColor=#ffffff;strokeWidth=2;verticalLabelPosition=bottom;verticalAlign=top;align=center;outlineConnect=0;" vertex="1" parent="1">
          <mxGeometry x="2164.5" y="66" width="101" height="64" as="geometry" />
        </mxCell>
        <mxCell id="k6ytuYubuGOaf6LZr-h1-2345" value="" style="rounded=1;whiteSpace=wrap;html=1;strokeColor=none;fillColor=#BAC8D3;fontSize=24;fontColor=#23445D;align=center;opacity=60;" vertex="1" parent="1">
          <mxGeometry x="2110" y="400" width="210" height="200" as="geometry" />
        </mxCell>
        <mxCell id="k6ytuYubuGOaf6LZr-h1-2346" value="172.16.150.57" style="text;strokeColor=none;fillColor=none;html=1;fontSize=24;fontStyle=1;verticalAlign=top;align=center;horizontal=1;" vertex="1" parent="1">
          <mxGeometry x="2166.5" y="535" width="100" height="40" as="geometry" />
        </mxCell>
        <mxCell id="k6ytuYubuGOaf6LZr-h1-2347" value="B101" style="text;strokeColor=none;fillColor=none;html=1;fontSize=24;fontStyle=1;verticalAlign=middle;align=center;" vertex="1" parent="1">
          <mxGeometry x="2163.5" y="425" width="100" height="40" as="geometry" />
        </mxCell>
        <mxCell id="k6ytuYubuGOaf6LZr-h1-2348" value="" style="shape=mxgraph.cisco.switches.multiswitch_device;sketch=0;html=1;pointerEvents=1;dashed=0;fillColor=#036897;strokeColor=#ffffff;strokeWidth=2;verticalLabelPosition=bottom;verticalAlign=top;align=center;outlineConnect=0;" vertex="1" parent="1">
          <mxGeometry x="2170.5" y="471" width="101" height="64" as="geometry" />
        </mxCell>
        <mxCell id="k6ytuYubuGOaf6LZr-h1-2349" value="f" style="rounded=1;whiteSpace=wrap;html=1;strokeColor=none;fillColor=#BAC8D3;fontSize=24;fontColor=#23445D;align=center;opacity=60;" vertex="1" parent="1">
          <mxGeometry x="2109.5" y="720" width="210" height="200" as="geometry" />
        </mxCell>
        <mxCell id="k6ytuYubuGOaf6LZr-h1-2350" value="172.16.150.56" style="text;strokeColor=none;fillColor=none;html=1;fontSize=24;fontStyle=1;verticalAlign=top;align=center;horizontal=1;" vertex="1" parent="1">
          <mxGeometry x="2165.5" y="850" width="100" height="40" as="geometry" />
        </mxCell>
        <mxCell id="k6ytuYubuGOaf6LZr-h1-2351" value="B101" style="text;strokeColor=none;fillColor=none;html=1;fontSize=24;fontStyle=1;verticalAlign=middle;align=center;" vertex="1" parent="1">
          <mxGeometry x="2162.5" y="740" width="100" height="40" as="geometry" />
        </mxCell>
        <mxCell id="k6ytuYubuGOaf6LZr-h1-2352" value="" style="shape=mxgraph.cisco.switches.multiswitch_device;sketch=0;html=1;pointerEvents=1;dashed=0;fillColor=#036897;strokeColor=#ffffff;strokeWidth=2;verticalLabelPosition=bottom;verticalAlign=top;align=center;outlineConnect=0;" vertex="1" parent="1">
          <mxGeometry x="2169.5" y="786" width="101" height="64" as="geometry" />
        </mxCell>
        <mxCell id="k6ytuYubuGOaf6LZr-h1-2354" value="f" style="rounded=1;whiteSpace=wrap;html=1;strokeColor=none;fillColor=#BAC8D3;fontSize=24;fontColor=#23445D;align=center;opacity=60;" vertex="1" parent="1">
          <mxGeometry x="2111.5" y="-320" width="210" height="200" as="geometry" />
        </mxCell>
        <mxCell id="k6ytuYubuGOaf6LZr-h1-2355" value="172.16.150.62" style="text;strokeColor=none;fillColor=none;html=1;fontSize=24;fontStyle=1;verticalAlign=top;align=center;horizontal=1;" vertex="1" parent="1">
          <mxGeometry x="2167.5" y="-190" width="100" height="40" as="geometry" />
        </mxCell>
        <mxCell id="k6ytuYubuGOaf6LZr-h1-2356" value="B201" style="text;strokeColor=none;fillColor=none;html=1;fontSize=24;fontStyle=1;verticalAlign=middle;align=center;" vertex="1" parent="1">
          <mxGeometry x="2164.5" y="-300" width="100" height="40" as="geometry" />
        </mxCell>
        <mxCell id="k6ytuYubuGOaf6LZr-h1-2357" value="" style="shape=mxgraph.cisco.switches.multiswitch_device;sketch=0;html=1;pointerEvents=1;dashed=0;fillColor=#036897;strokeColor=#ffffff;strokeWidth=2;verticalLabelPosition=bottom;verticalAlign=top;align=center;outlineConnect=0;" vertex="1" parent="1">
          <mxGeometry x="2171.5" y="-254" width="101" height="64" as="geometry" />
        </mxCell>
      </root>
    </mxGraphModel>
  </diagram>
</mxfile>
